<svg width="20" height="16" viewBox="0 0 20 16" xmlns="http://www.w3.org/2000/svg"><title>Icons / Blank</title><path d="M19.698 12.322a.498.498 0 0 1 .126.331v2.643a.5.5 0 0 1-.5.5H.688a.5.5 0 0 1-.5-.5v-2.442c0-.11.036-.217.104-.304l2.367-3.097V2.07c0-1.029.834-1.864 1.863-1.866h10.97a1.866 1.866 0 0 1 1.861 1.866v7.558c0 .014-.006.024-.007.037l2.352 2.658zM3.658 2.07v7.058h12.696V2.069a.865.865 0 0 0-.863-.866H4.522a.865.865 0 0 0-.863.866zm15.166 12.727v-1.953l-2.405-2.716H3.403l-2.215 2.896v1.773h17.636zM14.2 11.7a.5.5 0 1 1 0 1H5.811a.5.5 0 1 1 0-1h8.39z"/></svg>