<svg xmlns="http://www.w3.org/2000/svg" width="1000" height="1000" viewBox="0 0 1000 1000"><path fill="#FFF" d="M235.041 852.614c-48.798 0-88.367-39.562-88.367-88.369s39.568-88.368 88.367-88.368c48.802 0 88.368 39.561 88.368 88.368s-39.566 88.369-88.368 88.369zM111.327 693.551c-29.28 0-53.021-23.749-53.021-53.02 0-29.272 23.741-53.021 53.021-53.021s53.02 23.748 53.02 53.021c0 29.271-23.74 53.02-53.02 53.02zm123.714-53.02c-29.28 0-53.02-23.75-53.02-53.021 0-29.272 23.74-53.021 53.02-53.021 29.281 0 53.021 23.749 53.021 53.021 0 29.271-23.74 53.021-53.021 53.021zm123.715 53.02c-29.281 0-53.021-23.749-53.021-53.02 0-29.272 23.74-53.021 53.021-53.021s53.022 23.748 53.022 53.021c0 29.271-23.741 53.02-53.022 53.02zm0 247.429c-29.281 0-53.021-23.748-53.021-53.021 0-29.27 23.74-53.02 53.021-53.02s53.022 23.75 53.022 53.02c0 29.273-23.741 53.021-53.022 53.021zM235.041 994c-29.28 0-53.02-23.748-53.02-53.02 0-29.273 23.74-53.021 53.02-53.021 29.281 0 53.021 23.748 53.021 53.021 0 29.272-23.74 53.02-53.021 53.02zm-123.714-53.02c-29.28 0-53.021-23.748-53.021-53.021 0-29.27 23.741-53.02 53.021-53.02s53.02 23.75 53.02 53.02c0 29.273-23.74 53.021-53.02 53.021zm-53.02-123.714c-29.28 0-53.021-23.748-53.021-53.021 0-29.271 23.741-53.02 53.021-53.02s53.021 23.748 53.021 53.02c-.001 29.273-23.741 53.021-53.021 53.021zm353.471 0c-29.281 0-53.022-23.748-53.022-53.021 0-29.271 23.741-53.02 53.022-53.02 29.279 0 53.017 23.748 53.017 53.02 0 29.273-23.738 53.021-53.017 53.021zM235.041 322.409c-48.798 0-88.367-39.566-88.367-88.368 0-48.798 39.568-88.367 88.367-88.367 48.802 0 88.368 39.568 88.368 88.367 0 48.802-39.566 88.368-88.368 88.368zM111.327 163.347c-29.28 0-53.021-23.74-53.021-53.02s23.741-53.021 53.021-53.021 53.02 23.741 53.02 53.021-23.74 53.02-53.02 53.02zm123.714-53.02c-29.28 0-53.02-23.74-53.02-53.021 0-29.28 23.74-53.021 53.02-53.021 29.281 0 53.021 23.741 53.021 53.021 0 29.281-23.74 53.021-53.021 53.021zm123.715 53.02c-29.281 0-53.021-23.74-53.021-53.02s23.74-53.021 53.021-53.021 53.022 23.741 53.022 53.021-23.741 53.02-53.022 53.02zm0 247.431c-29.281 0-53.021-23.741-53.021-53.022s23.74-53.021 53.021-53.021 53.022 23.74 53.022 53.021-23.741 53.022-53.022 53.022zm-123.715 53.017c-29.28 0-53.02-23.738-53.02-53.017 0-29.281 23.74-53.022 53.02-53.022 29.281 0 53.021 23.741 53.021 53.022 0 29.279-23.74 53.017-53.021 53.017zm-123.714-53.017c-29.28 0-53.021-23.741-53.021-53.022s23.741-53.021 53.021-53.021 53.02 23.74 53.02 53.021-23.74 53.022-53.02 53.022zm-53.02-123.716c-29.28 0-53.021-23.74-53.021-53.021 0-29.28 23.741-53.02 53.021-53.02s53.021 23.74 53.021 53.02c-.001 29.281-23.741 53.021-53.021 53.021zm353.471 0c-29.281 0-53.022-23.74-53.022-53.021 0-29.28 23.741-53.02 53.022-53.02 29.279 0 53.017 23.74 53.017 53.02 0 29.281-23.738 53.021-53.017 53.021zm353.467 565.552c-48.808 0-88.368-39.562-88.368-88.369s39.561-88.368 88.368-88.368 88.369 39.561 88.369 88.368-39.561 88.369-88.369 88.369zM641.531 693.551c-29.272 0-53.021-23.749-53.021-53.02 0-29.272 23.748-53.021 53.021-53.021 29.271 0 53.02 23.748 53.02 53.021 0 29.271-23.749 53.02-53.02 53.02zm123.714-53.02c-29.271 0-53.02-23.75-53.02-53.021 0-29.272 23.748-53.021 53.02-53.021 29.272 0 53.021 23.749 53.021 53.021 0 29.271-23.748 53.021-53.021 53.021zm123.714 53.02c-29.27 0-53.02-23.749-53.02-53.02 0-29.272 23.75-53.021 53.02-53.021 29.273 0 53.021 23.748 53.021 53.021 0 29.271-23.748 53.02-53.021 53.02zm0 247.429c-29.27 0-53.02-23.748-53.02-53.021 0-29.27 23.75-53.02 53.02-53.02 29.273 0 53.021 23.75 53.021 53.02 0 29.273-23.748 53.021-53.021 53.021zM765.245 994c-29.271 0-53.02-23.748-53.02-53.02 0-29.273 23.748-53.021 53.02-53.021 29.272 0 53.021 23.748 53.021 53.021 0 29.272-23.748 53.02-53.021 53.02zm-123.714-53.02c-29.272 0-53.021-23.748-53.021-53.021 0-29.27 23.748-53.02 53.021-53.02 29.271 0 53.02 23.75 53.02 53.02 0 29.273-23.749 53.021-53.02 53.021zm-53.02-123.714c-29.272 0-53.021-23.748-53.021-53.021 0-29.271 23.749-53.02 53.021-53.02 29.271 0 53.021 23.748 53.021 53.02-.001 29.273-23.751 53.021-53.021 53.021zm353.469 0c-29.273 0-53.021-23.748-53.021-53.021 0-29.271 23.748-53.02 53.021-53.02 29.271 0 53.02 23.748 53.02 53.02 0 29.273-23.748 53.021-53.02 53.021zM765.245 322.409c-48.808 0-88.368-39.566-88.368-88.368 0-48.798 39.561-88.367 88.368-88.367s88.369 39.568 88.369 88.367c0 48.802-39.561 88.368-88.369 88.368zM641.531 163.347c-29.272 0-53.021-23.74-53.021-53.02s23.748-53.021 53.021-53.021c29.271 0 53.02 23.741 53.02 53.021s-23.749 53.02-53.02 53.02zm123.714-53.02c-29.271 0-53.02-23.74-53.02-53.021 0-29.28 23.748-53.021 53.02-53.021 29.272 0 53.021 23.741 53.021 53.021 0 29.281-23.748 53.021-53.021 53.021zm123.714 53.02c-29.27 0-53.02-23.74-53.02-53.02s23.75-53.021 53.02-53.021c29.273 0 53.021 23.741 53.021 53.021s-23.748 53.02-53.021 53.02zm0 247.431c-29.27 0-53.02-23.741-53.02-53.022s23.75-53.021 53.02-53.021c29.273 0 53.021 23.74 53.021 53.021s-23.748 53.022-53.021 53.022zm-123.714 53.017c-29.271 0-53.02-23.738-53.02-53.017 0-29.281 23.748-53.022 53.02-53.022 29.272 0 53.021 23.741 53.021 53.022 0 29.279-23.748 53.017-53.021 53.017zm-123.714-53.017c-29.272 0-53.021-23.741-53.021-53.022s23.748-53.021 53.021-53.021c29.271 0 53.02 23.74 53.02 53.021s-23.749 53.022-53.02 53.022zm-53.02-123.716c-29.272 0-53.021-23.74-53.021-53.021 0-29.28 23.749-53.02 53.021-53.02 29.271 0 53.021 23.74 53.021 53.02-.001 29.281-23.751 53.021-53.021 53.021zm353.469 0c-29.273 0-53.021-23.74-53.021-53.021 0-29.28 23.748-53.02 53.021-53.02 29.271 0 53.02 23.74 53.02 53.02 0 29.281-23.748 53.021-53.02 53.021z"/></svg>