<svg xmlns="http://www.w3.org/2000/svg" width="1000" height="1000" viewBox="0 0 1000 1000"><path fill="#FFF" d="M232.832 1.3c49.145 0 88.99 39.848 88.99 88.99 0 49.146-39.847 88.991-88.99 88.991-49.145 0-88.99-39.847-88.99-88.991-.003-49.142 39.845-88.99 88.99-88.99zm124.585 160.185c29.479 0 53.396 23.916 53.396 53.394 0 29.479-23.915 53.396-53.396 53.396-29.478 0-53.394-23.916-53.394-53.396.001-29.478 23.917-53.394 53.394-53.394zm-124.585 53.392c29.478 0 53.396 23.917 53.396 53.396s-23.918 53.396-53.396 53.396-53.396-23.916-53.396-53.396c0-29.479 23.918-53.396 53.396-53.396zm-124.588-53.392c29.479 0 53.396 23.916 53.396 53.394 0 29.479-23.916 53.396-53.396 53.396-29.479 0-53.396-23.916-53.396-53.396 0-29.478 23.916-53.394 53.396-53.394zM766.779 1.3c49.144 0 88.99 39.848 88.99 88.99 0 49.146-39.847 88.991-88.99 88.991-49.145 0-88.991-39.847-88.991-88.991-.001-49.142 39.847-88.99 88.991-88.99zm124.586 160.185c29.488 0 53.396 23.916 53.396 53.394 0 29.479-23.907 53.396-53.396 53.396s-53.396-23.916-53.396-53.396c.001-29.478 23.908-53.394 53.396-53.394zm-124.586 53.392c29.488 0 53.395 23.917 53.395 53.396s-23.906 53.396-53.395 53.396c-29.489 0-53.396-23.916-53.396-53.396.001-29.479 23.907-53.396 53.396-53.396zm-124.588-53.392c29.485 0 53.393 23.916 53.393 53.394 0 29.479-23.907 53.396-53.393 53.396-29.49 0-53.396-23.916-53.396-53.396.001-29.478 23.906-53.394 53.396-53.394zM232.832 677.634c49.145 0 88.99 39.847 88.99 88.99 0 49.145-39.847 88.991-88.99 88.991-49.145 0-88.99-39.847-88.99-88.991-.001-49.143 39.845-88.99 88.99-88.99zm124.585 160.182c29.479 0 53.396 23.906 53.396 53.396 0 29.488-23.915 53.396-53.396 53.396-29.478 0-53.394-23.907-53.394-53.396.001-29.491 23.917-53.396 53.394-53.396zM232.832 891.21c29.478 0 53.396 23.906 53.396 53.396 0 29.487-23.918 53.395-53.396 53.395s-53.396-23.907-53.396-53.395c0-29.49 23.918-53.396 53.396-53.396zm-124.588-53.394c29.479 0 53.396 23.906 53.396 53.396 0 29.488-23.916 53.396-53.396 53.396-29.479 0-53.396-23.907-53.396-53.396 0-29.491 23.916-53.396 53.396-53.396zm658.535-160.182c49.144 0 88.99 39.847 88.99 88.99 0 49.145-39.847 88.991-88.99 88.991-49.145 0-88.991-39.847-88.991-88.991 0-49.143 39.847-88.99 88.991-88.99zm124.586 160.182c29.488 0 53.396 23.906 53.396 53.396 0 29.488-23.907 53.396-53.396 53.396s-53.396-23.907-53.396-53.396c.001-29.491 23.908-53.396 53.396-53.396zM766.779 891.21c29.488 0 53.395 23.906 53.395 53.396 0 29.487-23.906 53.395-53.395 53.395-29.489 0-53.396-23.907-53.396-53.395.001-29.49 23.907-53.396 53.396-53.396zm-124.588-53.394c29.485 0 53.393 23.906 53.393 53.396 0 29.488-23.907 53.396-53.393 53.396-29.49 0-53.396-23.907-53.396-53.396.001-29.491 23.906-53.396 53.396-53.396zM499.803 339.468c49.144 0 88.992 39.847 88.992 88.989 0 49.144-39.85 88.991-88.992 88.991-49.143 0-88.991-39.847-88.991-88.991 0-49.143 39.85-88.989 88.991-88.989zm124.59 160.181c29.488 0 53.395 23.907 53.395 53.396s-23.906 53.396-53.395 53.396-53.395-23.907-53.395-53.396 23.906-53.396 53.395-53.396zm-124.59 53.394c29.488 0 53.394 23.907 53.394 53.396 0 29.488-23.906 53.395-53.394 53.395-29.479 0-53.395-23.906-53.395-53.395.002-29.489 23.918-53.396 53.395-53.396zm-124.587-53.394c29.479 0 53.396 23.907 53.396 53.396s-23.917 53.396-53.396 53.396c-29.478 0-53.396-23.907-53.396-53.396.002-29.489 23.92-53.396 53.396-53.396z"/></svg>