<svg xmlns="http://www.w3.org/2000/svg" width="1000" height="1000" viewBox="0 0 1000 1000"><path fill="#FFF" d="M759.159 500.018h29.44c26.016 0 47.11 21.093 47.11 47.108v47.108c0 26.018-21.095 47.111-47.11 47.111h-29.44c-26.019 0-47.11-21.094-47.11-47.111v-47.108c0-26.016 21.092-47.108 47.11-47.108zm158.992 0h29.443c26.016 0 47.108 21.093 47.108 47.108v47.108c0 26.018-21.093 47.111-47.108 47.111h-29.443c-26.016 0-47.11-21.094-47.11-47.111v-47.108c0-26.016 21.095-47.108 47.11-47.108zm-353.32 0h29.443c26.018 0 47.108 21.093 47.108 47.108v47.108c0 26.018-21.091 47.111-47.108 47.111h-29.443c-26.016 0-47.11-21.094-47.11-47.111v-47.108c0-26.016 21.094-47.108 47.11-47.108zm-158.993 0h29.441c26.016 0 47.11 21.093 47.11 47.108v47.108c0 26.018-21.095 47.111-47.11 47.111h-29.441c-26.016 0-47.11-21.094-47.11-47.111v-47.108c0-26.016 21.095-47.108 47.11-47.108zm-353.32 0h29.441c26.016 0 47.11 21.093 47.11 47.108v47.108c0 26.018-21.095 47.111-47.11 47.111H52.518c-26.017 0-47.11-21.094-47.11-47.111v-47.108c0-26.016 21.093-47.108 47.11-47.108zm158.993 0h29.443c26.018 0 47.108 21.093 47.108 47.108v47.108c0 26.018-21.091 47.111-47.108 47.111h-29.443c-26.016 0-47.11-21.094-47.11-47.111v-47.108c0-26.016 21.094-47.108 47.11-47.108zM52.518 358.69h188.436c26.018 0 47.108 21.093 47.108 47.108v29.443c0 26.016-21.091 47.11-47.108 47.11H52.518c-26.017 0-47.11-21.095-47.11-47.11v-29.443c0-26.015 21.093-47.108 47.11-47.108zm353.32 0h188.436c26.018 0 47.108 21.093 47.108 47.108v29.443c0 26.016-21.091 47.11-47.108 47.11H405.838c-26.016 0-47.11-21.095-47.11-47.11v-29.443c0-26.015 21.095-47.108 47.11-47.108zm353.321 0h188.436c26.016 0 47.108 21.093 47.108 47.108v29.443c0 26.016-21.093 47.11-47.108 47.11H759.159c-26.019 0-47.11-21.095-47.11-47.11v-29.443c0-26.015 21.092-47.108 47.11-47.108zm0 476.983h29.44c26.016 0 47.11 21.093 47.11 47.108v47.108c0 26.016-21.095 47.11-47.11 47.11h-29.44c-26.019 0-47.11-21.095-47.11-47.11v-47.108c0-26.015 21.092-47.108 47.11-47.108zm158.992 0h29.443c26.016 0 47.108 21.093 47.108 47.108v47.108c0 26.016-21.093 47.11-47.108 47.11h-29.443c-26.016 0-47.11-21.095-47.11-47.11v-47.108c0-26.015 21.095-47.108 47.11-47.108zm-353.32 0h29.443c26.018 0 47.108 21.093 47.108 47.108v47.108c0 26.016-21.091 47.11-47.108 47.11h-29.443c-26.016 0-47.11-21.095-47.11-47.11v-47.108c0-26.015 21.094-47.108 47.11-47.108zm-158.993 0h29.441c26.016 0 47.11 21.093 47.11 47.108v47.108c0 26.016-21.095 47.11-47.11 47.11h-29.441c-26.016 0-47.11-21.095-47.11-47.11v-47.108c0-26.015 21.095-47.108 47.11-47.108zm-353.32 0h29.441c26.016 0 47.11 21.093 47.11 47.108v47.108c0 26.016-21.095 47.11-47.11 47.11H52.518c-26.017 0-47.11-21.095-47.11-47.11v-47.108c0-26.015 21.093-47.108 47.11-47.108zm158.993 0h29.443c26.018 0 47.108 21.093 47.108 47.108v47.108c0 26.016-21.091 47.11-47.108 47.11h-29.443c-26.016 0-47.11-21.095-47.11-47.11v-47.108c0-26.015 21.094-47.108 47.11-47.108zM52.518 694.344h188.436c26.018 0 47.108 21.093 47.108 47.108v29.444c0 26.016-21.091 47.109-47.108 47.109H52.518c-26.017 0-47.11-21.094-47.11-47.109v-29.444c0-26.015 21.093-47.108 47.11-47.108zm353.32 0h188.436c26.018 0 47.108 21.093 47.108 47.108v29.444c0 26.016-21.091 47.109-47.108 47.109H405.838c-26.016 0-47.11-21.094-47.11-47.109v-29.444c0-26.015 21.095-47.108 47.11-47.108zm353.321 0h188.436c26.016 0 47.108 21.093 47.108 47.108v29.444c0 26.016-21.093 47.109-47.108 47.109H759.159c-26.019 0-47.11-21.094-47.11-47.109v-29.444c0-26.015 21.092-47.108 47.11-47.108zm0-529.981h29.44c26.016 0 47.11 21.094 47.11 47.11v47.108c0 26.016-21.095 47.108-47.11 47.108h-29.44c-26.019 0-47.11-21.093-47.11-47.108v-47.108c0-26.015 21.092-47.11 47.11-47.11zm158.992 0h29.443c26.016 0 47.108 21.094 47.108 47.11v47.108c0 26.016-21.093 47.108-47.108 47.108h-29.443c-26.016 0-47.11-21.093-47.11-47.108v-47.108c0-26.015 21.095-47.11 47.11-47.11zm-353.32 0h29.443c26.018 0 47.108 21.094 47.108 47.11v47.108c0 26.016-21.091 47.108-47.108 47.108h-29.443c-26.016 0-47.11-21.093-47.11-47.108v-47.108c0-26.015 21.094-47.11 47.11-47.11zm-158.993 0h29.441c26.016 0 47.11 21.094 47.11 47.11v47.108c0 26.016-21.095 47.108-47.11 47.108h-29.441c-26.016 0-47.11-21.093-47.11-47.108v-47.108c0-26.015 21.095-47.11 47.11-47.11zm-353.32 0h29.441c26.016 0 47.11 21.094 47.11 47.11v47.108c0 26.016-21.095 47.108-47.11 47.108H52.518c-26.017 0-47.11-21.093-47.11-47.108v-47.108c0-26.015 21.093-47.11 47.11-47.11zm158.993 0h29.443c26.018 0 47.108 21.094 47.108 47.11v47.108c0 26.016-21.091 47.108-47.108 47.108h-29.443c-26.016 0-47.11-21.093-47.11-47.108v-47.108c0-26.015 21.094-47.11 47.11-47.11zM52.518 23.036h188.436c26.018 0 47.108 21.093 47.108 47.108v29.443c0 26.016-21.091 47.11-47.108 47.11H52.518c-26.017 0-47.11-21.094-47.11-47.11V70.144c0-26.016 21.093-47.108 47.11-47.108zm353.32 0h188.436c26.018 0 47.108 21.093 47.108 47.108v29.443c0 26.016-21.091 47.11-47.108 47.11H405.838c-26.016 0-47.11-21.094-47.11-47.11V70.144c0-26.016 21.095-47.108 47.11-47.108zm353.321 0h188.436c26.016 0 47.108 21.093 47.108 47.108v29.443c0 26.016-21.093 47.11-47.108 47.11H759.159c-26.019 0-47.11-21.094-47.11-47.11V70.144c0-26.016 21.092-47.108 47.11-47.108z"/></svg>