<svg xmlns="http://www.w3.org/2000/svg" width="1000" height="1000" viewBox="0 0 1000 1000"><path fill="#e81b42" d="M498.999.429c275.355 0 498.572 223.215 498.572 498.57S774.354 997.571 498.999 997.571.429 774.354.429 498.999 223.644.429 498.999.429zM212.767 278.428c-7.337.688-12.943 6.864-12.911 14.229v234.709c0 7.858 6.379 14.229 14.246 14.229h569.797c7.858 0 14.243-6.37 14.243-14.229v-234.71c0-7.858-6.385-14.229-14.243-14.229H214.102a10.08 10.08 0 0 0-1.335.001zm15.58 28.468h541.307v206.236h-28.491v-56.736c.084-4.103-1.6-8.04-4.631-10.808a14.185 14.185 0 0 0-11.172-3.651c-7.345.806-12.854 7.08-12.686 14.459v56.736h-28.491V406.561c.085-4.096-1.6-8.04-4.618-10.808a14.274 14.274 0 0 0-11.183-3.651c-7.347.806-12.854 7.087-12.688 14.459v106.572h-28.491v-56.736c.084-4.103-1.6-8.04-4.618-10.808a14.228 14.228 0 0 0-11.185-3.651c-7.345.806-12.854 7.08-12.686 14.459v56.736h-28.491V406.561c.084-4.096-1.6-8.04-4.618-10.808a14.277 14.277 0 0 0-11.185-3.651c-7.345.806-12.853 7.087-12.686 14.459v106.572h-28.491v-56.736c.084-4.103-1.6-8.04-4.618-10.808a14.228 14.228 0 0 0-11.185-3.651c-7.345.806-12.847 7.08-12.686 14.459v56.736h-28.491V406.561c.084-4.096-1.6-8.04-4.626-10.808a14.252 14.252 0 0 0-11.177-3.651c-7.345.806-12.847 7.087-12.686 14.459v106.572h-28.491v-56.736c.084-4.103-1.6-8.04-4.624-10.808a14.211 14.211 0 0 0-11.179-3.651c-7.338.806-12.847 7.08-12.686 14.459v56.736h-28.491V406.561c.084-4.096-1.6-8.04-4.626-10.808a14.252 14.252 0 0 0-11.177-3.651c-7.338.806-12.847 7.087-12.688 14.459v106.572h-28.489v-56.736c.09-4.103-1.6-8.04-4.626-10.808a14.207 14.207 0 0 0-11.177-3.651c-7.338.806-12.847 7.08-12.686 14.459v56.736h-28.491V306.896zm-30.049 270.298c-7.337.806-12.847 7.079-12.686 14.453V705.55a14.246 14.246 0 1 0 28.489 0V591.647c.091-4.09-1.6-8.041-4.624-10.795a14.216 14.216 0 0 0-11.179-3.658zm598.286 0c-7.345.806-12.854 7.079-12.686 14.453V705.55a14.184 14.184 0 0 0 7.065 12.507 14.248 14.248 0 0 0 21.423-12.507V591.647a14.206 14.206 0 0 0-4.632-10.795 14.188 14.188 0 0 0-11.17-3.658zm-477.426.223a14.224 14.224 0 0 0-7.789 3.56l-64.103 56.952a14.233 14.233 0 0 0 0 21.132l64.103 56.952a14.234 14.234 0 0 0 15.295 2.49 14.265 14.265 0 0 0 8.521-12.953v-42.706h327.632v42.706a14.23 14.23 0 0 0 8.513 12.953 14.225 14.225 0 0 0 15.302-2.49l64.104-56.952a14.278 14.278 0 0 0 4.688-10.572c0-4.021-1.712-7.86-4.688-10.56l-64.104-56.952a14.301 14.301 0 0 0-10.684-3.56c-7.427.583-13.159 6.787-13.131 14.23v42.722H335.184v-42.722a14.238 14.238 0 0 0-4.785-10.74 14.243 14.243 0 0 0-11.241-3.49zm-12.465 45.835v50.498l-28.489-25.152 28.489-25.346zm384.614 0l28.488 25.346-28.488 25.152v-50.498z"/></svg>