<svg width="34" height="36" viewBox="0 0 34 36" fill="none" xmlns="http://www.w3.org/2000/svg"><path d="M33.439 36h-8.26l-6.073-13.197c-1.86 1.012-3.272 2.767-4.747 4.6-1.153 1.434-2.345 2.916-3.82 4.126-1.716 1.407-3.712 2.654-6.205 3.504-1.13.382-3.052.88-3.77.954-.309.029-.514.014-.558-.088-.03-.088.044-.147.367-.308.065-.032.166-.077.295-.135.592-.267 1.752-.79 2.536-1.332 1.188-.836 1.863-1.73 1.922-2.42-.06-.212-.19-.472-.345-.786-.682-1.377-1.87-3.777.066-7.587.342-.678.665-1.277.963-1.831.444-.824.834-1.547 1.15-2.275.6-1.393 1.041-3.358 1.188-4.825.014-.088.03-.088.073-.029C9.38 15.544 13.87 20.15 13.21 24.74c1.496-.572 4.078-2.317 5.266-3.24.28-.218.537-.437.784-.646.867-.737 1.595-1.356 2.634-1.379.668-.008.993.17 1.319.347.254.138.508.277.926.328.235.03.587-.015.763-.103.073-.029.058-.117-.059-.146-.537-.128-.907-.386-1.275-.643-.518-.361-1.035-.721-2.011-.721-1.126 0-2.085.78-2.86 1.41-.255.208-.49.399-.705.54l-4.24-8.828C11.992 7.963 12.52 5.28 16.422 0L33.44 36z" fill="#1E1852"/></svg>