<svg xmlns="http://www.w3.org/2000/svg" viewBox="0 0 600 100" width="600" height="100"><title>LOGO_ACCOR_ALL</title><path class="cls-1" d="M124.553 94.52h-12.65c-5.31 0-8-1.18-10-3.78-2.09-2.76-2.09-7-2.09-10.94v-74h16.28v76.4c0 6.05.65 10.34 8.43 12.07v.26zm-33.25-.04h-20.35l-15-32.5c-8.17 4.44-12.83 14.7-21.11 21.49a48.4 48.4 0 0 1-15.29 8.63 62.15 62.15 0 0 1-9.29 2.35c-.76.07-1.26 0-1.37-.22-.11-.22.11-.36.9-.76a49.43 49.43 0 0 0 7-3.61c2.93-2.06 4.59-4.26 4.73-6-.79-2.81-6.54-9.1-.68-20.62 2.09-4.16 3.9-7.12 5.2-10.12a44.36 44.36 0 0 0 2.93-11.88c0-.22.07-.22.18-.07 2.86 2.89 13.92 14.23 12.29 25.54 3.69-1.41 10-5.71 13-8 3.11-2.42 5.13-4.91 8.42-5 2.93 0 3.18 1.37 5.53 1.66a4.08 4.08 0 0 0 1.88-.25c.18-.08.14-.29-.14-.36-3.19-.76-4-3.36-8.1-3.36-3.69 0-6.65 3.39-8.79 4.8l-10.45-21.67c-4.34-9.11-3-15.72 6.58-28.72zm64.3.04h-12.65c-5.32 0-8-1.18-10-3.78-2.1-2.76-2.1-7-2.1-10.94v-74h16.27v76.4c0 6.05.65 10.34 8.42 12.07v.26zm16.53-74.77l-1.92 4.92h3.87zm3 7.37h-6l-.83 1.92h-3.22l6.41-14.63h1.23l6.44 14.63h-3.22zm20.27-12.03a7 7 0 0 1 2.68 2.68l-2.28 1.59a4.77 4.77 0 0 0-4.19-2.46 4.54 4.54 0 0 0-3.4 1.34 4.67 4.67 0 0 0-1.34 3.46 4.57 4.57 0 0 0 4.74 4.77 4.78 4.78 0 0 0 4.19-2.45l2.28 1.58a6.77 6.77 0 0 1-2.68 2.68 8.11 8.11 0 0 1-9.36-1.19 7.59 7.59 0 0 1 0-10.81 7.74 7.74 0 0 1 5.53-2.16 7.4 7.4 0 0 1 3.83.97zm19.99 0a7 7 0 0 1 2.68 2.68l-2.28 1.59a4.77 4.77 0 0 0-4.19-2.46 4.54 4.54 0 0 0-3.4 1.34 4.67 4.67 0 0 0-1.34 3.46 4.57 4.57 0 0 0 4.74 4.77 4.78 4.78 0 0 0 4.19-2.45l2.28 1.58a6.77 6.77 0 0 1-2.68 2.68 8.11 8.11 0 0 1-9.36-1.19 7.59 7.59 0 0 1 0-10.81 7.72 7.72 0 0 1 5.53-2.16 7.4 7.4 0 0 1 3.83.97zm12.84 3.11a5.15 5.15 0 0 0 0 6.93 4.92 4.92 0 0 0 6.75 0 5.15 5.15 0 0 0 0-6.93 4.92 4.92 0 0 0-6.75 0zm8.89-1.92a7.14 7.14 0 0 1 2.27 5.38 7.27 7.27 0 0 1-2.27 5.42 7.71 7.71 0 0 1-5.53 2.17 7.57 7.57 0 0 1-5.5-2.17 7.56 7.56 0 0 1 0-10.8 8.09 8.09 0 0 1 11 0zm12.29 4.92h2.49a2.23 2.23 0 0 0 1.63-.58 2.23 2.23 0 0 0 0-3 2.22 2.22 0 0 0-1.62-.58h-2.5zm6 7.8l-3.8-5.17h-2.2V29h-3V14.41h5.49a5.5 5.5 0 0 1 3.8 1.3 4.42 4.42 0 0 1 1.48 3.43 4.22 4.22 0 0 1-.69 2.45 4.61 4.61 0 0 1-1.88 1.67l4.16 5.78zm-90.34 32.04V46.41h3v11.92h6.4v2.71zm15.62-14.631h3v14.63h-3zm16.16 8.851l3.65-8.89h3.36l-6.4 14.63h-1.22l-6.44-14.63h3.4zm13.12 5.78V46.41h9.87v2.67h-6.87v2.96h5.03v2.57h-5.03v3.72h7.12v2.71zm-44.9 32.91V79.32h3v11.92h6.4v2.71zm15.62-14.631h3v14.63h-3zm13.66 14.631h-3V79.29h1.16l6 7.69 6-7.69h1.19v14.66h-3v-7.83l-3.68 4.62h-.98l-3.69-4.62zm19.05-14.631h3v14.63h-3zM230.183 82v11.92h-3V82h-4.7v-2.68h12.4V82zm10.84 11.95V79.32h3v11.92h6.4v2.71zm15.62 0V79.32h9.87V82h-6.87v2.96h5.02v2.56h-5.02v3.72h7.12v2.71zm24.22-14.16a5.47 5.47 0 0 1 1.91 2l-2 1.59a3.35 3.35 0 0 0-2.79-1.7 2.23 2.23 0 0 0-1.3.36 1.15 1.15 0 0 0-.5 1.05 1.12 1.12 0 0 0 .39.9 5.84 5.84 0 0 0 1.34.76l1.66.72a8.34 8.34 0 0 1 2.75 1.81 3.6 3.6 0 0 1 .91 2.45 3.84 3.84 0 0 1-1.45 3.18 5.64 5.64 0 0 1-3.69 1.19 6.33 6.33 0 0 1-5.64-3.21l2.06-1.55a4.42 4.42 0 0 0 3.58 2.13 2.37 2.37 0 0 0 1.52-.44 1.44 1.44 0 0 0 .54-1.19 1.28 1.28 0 0 0-.25-.79 1.84 1.84 0 0 0-.58-.51c-.22-.11-.54-.29-1.05-.5l-1.59-.73a8 8 0 0 1-2.64-1.77 3.45 3.45 0 0 1-.9-2.45 3.77 3.77 0 0 1 1.37-3 5.3 5.3 0 0 1 3.47-1.15 6.13 6.13 0 0 1 2.88.85zm16.37 0a5.5 5.5 0 0 1 1.92 2l-2 1.59a3.35 3.35 0 0 0-2.78-1.7 2.21 2.21 0 0 0-1.3.36 1.16 1.16 0 0 0-.51 1.05 1.13 1.13 0 0 0 .4.9 5.62 5.62 0 0 0 1.34.76l1.66.72a8.45 8.45 0 0 1 2.75 1.81 3.59 3.59 0 0 1 .9 2.45 3.84 3.84 0 0 1-1.45 3.18 5.59 5.59 0 0 1-3.68 1.19 6.43 6.43 0 0 1-3.33-.86 6.35 6.35 0 0 1-2.31-2.35l2.06-1.55a4.4 4.4 0 0 0 3.59 2.16 2.39 2.39 0 0 0 1.52-.44 1.44 1.44 0 0 0 .54-1.19 1.28 1.28 0 0 0-.25-.79 2.09 2.09 0 0 0-.58-.51c-.22-.11-.55-.29-1.05-.5l-1.59-.73a7.84 7.84 0 0 1-2.64-1.77 3.41 3.41 0 0 1-.9-2.45 3.77 3.77 0 0 1 1.37-3 5.28 5.28 0 0 1 3.47-1.15 6.33 6.33 0 0 1 2.85.82zm80.39-74.01v32.49h-3.3v-26l-12.77 21.86h-1.63l-12.77-21.72v25.85h-3.3V5.78h2.83l14.12 24.09 14-24.09zm33.59 29.52v3h-23V5.78h22.28v3h-18.84v11.56h16.84v2.86h-16.84v12.1zm31.08 0v3h-23V5.78h22.3v3h-18.86v11.56h16.82v2.86h-16.82v12.1zm14.4-26.55h-11.43v-3h26.3v3h-11.43v29.52h-3.44zm20.35-2.97h3.45v32.49h-3.44zm41.21 0v32.49h-2.84l-20.92-26.36v26.36h-3.44V5.78h2.83l21 26.37V5.78zm33.49 16.25h3.3v12.39a16.13 16.13 0 0 1-5.39 3.07 20.07 20.07 0 0 1-6.55 1.06 18 18 0 0 1-8.78-2.13 15.79 15.79 0 0 1-6.13-5.92 17.22 17.22 0 0 1 0-16.95 15.79 15.79 0 0 1 6.13-5.92 18.11 18.11 0 0 1 8.83-2.13 19.1 19.1 0 0 1 6.83 1.18 13.53 13.53 0 0 1 5.24 3.51l-2.13 2.18a13.37 13.37 0 0 0-9.8-3.81 14.65 14.65 0 0 0-7.14 1.74 12.8 12.8 0 0 0-5 4.83 14 14 0 0 0 0 13.77 13 13 0 0 0 5 4.82 15.43 15.43 0 0 0 15.61-.74zm15.03 15.36a12.6 12.6 0 0 1-5.13-3.06l1.34-2.65a12.92 12.92 0 0 0 4.69 2.86 17.38 17.38 0 0 0 6 1.09c2.91 0 5.1-.54 6.55-1.6a4.94 4.94 0 0 0 2.19-4.16 4.15 4.15 0 0 0-1.19-3.11 8 8 0 0 0-2.9-1.79q-1.73-.61-4.78-1.37a49.48 49.48 0 0 1-5.86-1.78 9.73 9.73 0 0 1-3.74-2.63 6.94 6.94 0 0 1-1.55-4.78 8.09 8.09 0 0 1 1.3-4.48 8.83 8.83 0 0 1 4-3.22 16.3 16.3 0 0 1 6.69-1.21 19.72 19.72 0 0 1 5.46.76 15.86 15.86 0 0 1 4.62 2.12l-1.16 2.74a15.92 15.92 0 0 0-4.37-2 16.25 16.25 0 0 0-4.55-.68q-4.27 0-6.43 1.65a5.12 5.12 0 0 0-2.16 4.25 4.22 4.22 0 0 0 1.18 3.13 7.66 7.66 0 0 0 3 1.81q1.8.63 4.81 1.37a49.05 49.05 0 0 1 5.79 1.74 9.57 9.57 0 0 1 3.74 2.6 6.91 6.91 0 0 1 1.53 4.72 8 8 0 0 1-1.35 4.49 9 9 0 0 1-4.07 3.2 17 17 0 0 1-6.74 1.18 20.72 20.72 0 0 1-6.91-1.19zm-175.28 57.1l-4.5-4.64a14.21 14.21 0 0 1-10.87 4.41 14.59 14.59 0 0 1-5.65-1 9.1 9.1 0 0 1-3.88-2.93 7 7 0 0 1-1.39-4.29 8.18 8.18 0 0 1 1.86-5.25 22.25 22.25 0 0 1 6.32-4.87 19.37 19.37 0 0 1-3.21-4.11 7.66 7.66 0 0 1-.88-3.6 6.26 6.26 0 0 1 2.23-5 8.9 8.9 0 0 1 6-1.91 8.35 8.35 0 0 1 5.53 1.72 5.88 5.88 0 0 1 2 4.74 6.58 6.58 0 0 1-1.62 4.34 22.25 22.25 0 0 1-5.62 4.25l8.92 9.19a20.75 20.75 0 0 0 2.18-6.27l2.69.84a21.46 21.46 0 0 1-2.88 7.47l4.65 4.78zm-6.45-6.63l-9.81-10.08a19.6 19.6 0 0 0-5.31 3.95 6 6 0 0 0-1.47 3.94 5 5 0 0 0 2.16 4.25 9.32 9.32 0 0 0 5.69 1.6 11.28 11.28 0 0 0 8.71-3.66zm-11.31-22.94a4 4 0 0 0-1.38 3.2 5.38 5.38 0 0 0 .75 2.74 19.38 19.38 0 0 0 2.92 3.53 22.32 22.32 0 0 0 4.88-3.48 4.53 4.53 0 0 0 1.35-3.16 3.71 3.71 0 0 0-1.25-2.94 5.14 5.14 0 0 0-3.49-1.1 5.53 5.53 0 0 0-3.81 1.21zm60.76 26.09v3h-23V61.49h22.3v3h-18.91v11.56h16.82v2.92h-16.82v12.07zm34.6-29.52l-14.4 32.49h-3.39l-14.4-32.49h3.72l12.45 28.22 12.54-28.22zm27.69 29.52v3h-23V61.49h22.3v3h-18.86v11.56h16.82v2.92h-16.82v12.07zm35.26-29.52v32.49h-2.83l-20.91-26.37v26.37h-3.43V61.49h2.83l20.95 26.37V61.49zm16.91 2.97h-11.46v-3h26.29v3h-11.39v29.52h-3.44zm21.86 28.64a12.74 12.74 0 0 1-5.13-3.06l1.35-2.65a12.83 12.83 0 0 0 4.69 2.86 17.3 17.3 0 0 0 6 1.09c2.91 0 5.09-.54 6.55-1.6a5 5 0 0 0 2.18-4.16 4.15 4.15 0 0 0-1.18-3.11 8.08 8.08 0 0 0-2.91-1.79c-1.14-.41-2.74-.87-4.78-1.37a51.44 51.44 0 0 1-5.86-1.78 9.73 9.73 0 0 1-3.74-2.63 7 7 0 0 1-1.55-4.78 8.09 8.09 0 0 1 1.3-4.48 9 9 0 0 1 4-3.23 16.47 16.47 0 0 1 6.76-1.21 19.72 19.72 0 0 1 5.46.76 15.79 15.79 0 0 1 4.63 2.12l-1.17 2.73a15.83 15.83 0 0 0-4.36-2 16.32 16.32 0 0 0-4.56-.68q-4.28 0-6.43 1.65a5.12 5.12 0 0 0-2.16 4.25 4.22 4.22 0 0 0 1.18 3.13 7.83 7.83 0 0 0 3 1.81q1.79.63 4.81 1.37a49.4 49.4 0 0 1 5.78 1.74 9.57 9.57 0 0 1 3.74 2.6 6.88 6.88 0 0 1 1.53 4.71 8 8 0 0 1-1.32 4.48 8.88 8.88 0 0 1-4.07 3.21 16.93 16.93 0 0 1-6.73 1.18 21 21 0 0 1-7.01-1.16z" fill="#1e1852"/></svg>