<svg width="20" height="18" viewBox="0 0 20 18" xmlns="http://www.w3.org/2000/svg"><title>Icons / Blank</title><path d="M1.667.5h16.666C19.253.5 20 1.261 20 2.2v13.6c0 .939-.746 1.7-1.667 1.7H1.667C.747 17.5 0 16.739 0 15.8V2.2C0 1.261.746.5 1.667.5zm0 .85c-.46 0-.834.38-.834.85v13.6c0 .47.373.85.834.85h16.666c.46 0 .834-.38.834-.85V2.2c0-.47-.373-.85-.834-.85H1.667zm1.712 10.945c1.179-.345 2.213-.834 3.037-1.389.354-.239.365-.333.316-.53-.233-.953-2.411-2.69-3.03-4.488-.051-.146-.075-.263-.012-.285.026-.011.06.007.134.049.168.09.508.29 1.13.488.636.202 1.386.378 3.006.622 1.424.212 2.62 1.143 3.122 2.196 1.4.265 2.773-.884 3.847-1.037.44-.062.862.17.952.488 0 0 .589.177.686.213.075.027.1.048.1.086 0 .044-.037.067-.099.075-.06.007-1.658.153-2.348.315-3.668.862-2.676 2.353-7.158 3.067-1.315.208-2.712.276-3.675.212-.032-.003-.054-.012-.054-.04 0-.021.02-.035.046-.042z" fill="#0D232D"/></svg>