<svg xmlns="http://www.w3.org/2000/svg" width="1000" height="1000" viewBox="0 0 1000 1000"><path fill="#FFF" d="M49.564 427.938h29.64c26.189 0 47.421 21.235 47.421 47.423v47.423c0 26.187-21.231 47.421-47.421 47.421h-29.64c-26.188 0-47.421-21.234-47.421-47.421v-47.423c0-26.187 21.233-47.423 47.421-47.423zm0 213.4h29.64c26.189 0 47.421 21.231 47.421 47.421v47.421c0 26.189-21.231 47.423-47.421 47.423h-29.64c-26.188 0-47.421-21.233-47.421-47.423v-47.421c0-26.19 21.233-47.421 47.421-47.421zM191.83 854.733h29.639c26.188 0 47.423 21.235 47.423 47.423v47.423c0 26.189-21.235 47.421-47.423 47.421H191.83c-26.189 0-47.421-21.231-47.421-47.421v-47.423c0-26.187 21.232-47.423 47.421-47.423zm195.615 0h29.639c26.188 0 47.423 21.235 47.423 47.423v47.423c0 26.189-21.235 47.421-47.423 47.421h-29.639c-26.189 0-47.421-21.231-47.421-47.421v-47.423c0-26.187 21.232-47.423 47.421-47.423zm195.616 0h29.637c26.189 0 47.423 21.235 47.423 47.423v47.423c0 26.189-21.233 47.421-47.423 47.421h-29.637c-26.188 0-47.422-21.231-47.422-47.421v-47.423c0-26.187 21.233-47.423 47.422-47.423zm337.877-213.395h29.641c26.189 0 47.421 21.231 47.421 47.421v47.421c0 26.189-21.231 47.423-47.421 47.423h-29.641c-26.187 0-47.421-21.233-47.421-47.423v-47.421c.001-26.19 21.235-47.421 47.421-47.421zM778.674 854.733h29.639c26.189 0 47.421 21.235 47.421 47.423v47.423c0 26.189-21.231 47.421-47.421 47.421h-29.639c-26.187 0-47.422-21.231-47.422-47.421v-47.423c0-26.187 21.235-47.423 47.422-47.423zm142.264-426.795h29.641c26.189 0 47.421 21.235 47.421 47.423v47.423c0 26.187-21.231 47.421-47.421 47.421h-29.641c-26.187 0-47.421-21.234-47.421-47.421v-47.423c.001-26.187 21.235-47.423 47.421-47.423zm0-213.396h29.641c26.189 0 47.421 21.232 47.421 47.421v47.421c0 26.189-21.231 47.421-47.421 47.421h-29.641c-26.187 0-47.421-21.232-47.421-47.421v-47.421c.001-26.189 21.235-47.421 47.421-47.421zm-871.374 0h29.64c26.189 0 47.421 21.232 47.421 47.421v47.421c0 26.189-21.231 47.421-47.421 47.421h-29.64c-26.188 0-47.421-21.232-47.421-47.421v-47.421c0-26.189 21.233-47.421 47.421-47.421zM191.83 1.143h29.639c26.188 0 47.423 21.233 47.423 47.421v47.423c0 26.187-21.235 47.422-47.423 47.422H191.83c-26.189 0-47.421-21.235-47.421-47.422V48.564c0-26.188 21.232-47.421 47.421-47.421zm195.615 0h29.639c26.188 0 47.423 21.233 47.423 47.421v47.423c0 26.187-21.235 47.422-47.423 47.422h-29.639c-26.189 0-47.421-21.235-47.421-47.422V48.564c0-26.188 21.232-47.421 47.421-47.421zm195.616 0h29.637c26.189 0 47.423 21.233 47.423 47.421v47.423c0 26.187-21.233 47.422-47.423 47.422h-29.637c-26.188 0-47.422-21.235-47.422-47.422V48.564c0-26.188 21.233-47.421 47.422-47.421zm195.613 0h29.639c26.189 0 47.421 21.233 47.421 47.421v47.423c0 26.187-21.231 47.422-47.421 47.422h-29.639c-26.187 0-47.422-21.235-47.422-47.422V48.564c0-26.188 21.235-47.421 47.422-47.421zM245.179 214.542h509.785c26.189 0 47.421 21.232 47.421 47.421V736.18c0 26.189-21.231 47.423-47.421 47.423H245.179c-26.189 0-47.421-21.233-47.421-47.423V261.963c0-26.189 21.232-47.421 47.421-47.421z"/></svg>