<svg xmlns="http://www.w3.org/2000/svg" width="1000" height="1000" viewBox="0 0 1000 1000"><path fill="#E61A43" d="M514.349 242.826h38.34v51.122h-38.34v-51.122zm255.606 204.485h38.342v51.121h-38.342v-51.121zm-562.333-51.122h38.34v51.122h-38.34v-51.122zm242.826 268.386h38.34v51.123h-38.34v-51.123zM984.2 0h-94.792v31.602h56.65l-99.422 99.42 22.341 22.341 99.422-99.422v56.651H1000V15.8c0-4.193-1.66-8.212-4.617-11.176A15.831 15.831 0 0 0 984.2 0zm-15.801 942.922L868.978 843.5l-22.341 22.341 99.422 99.422h-56.65v31.601H984.2c4.192 0 8.212-1.66 11.183-4.617a15.85 15.85 0 0 0 4.617-11.183v-94.792h-31.601v56.65zM134.159 843.5l-99.42 99.422v-56.65H3.137v94.792c0 4.192 1.661 8.212 4.624 11.183a15.821 15.821 0 0 0 11.176 4.617h94.792v-31.601H57.078l99.422-99.422-22.341-22.341zm-20.43-811.898V0H18.937A15.802 15.802 0 0 0 7.761 4.624 15.798 15.798 0 0 0 3.137 15.8v94.792h31.602V53.941l99.42 99.422 22.341-22.341-99.422-99.42h56.651zm387.839 19.52c-247.043 0-447.31 200.267-447.31 447.31 0 247.044 200.267 447.312 447.31 447.312 247.044 0 447.312-200.268 447.312-447.312a447.272 447.272 0 0 0-131.024-316.294C733.985 98.249 620.211 51.122 501.568 51.122zm198.806 165.67h33.138v33.136h-33.138v-33.136zM269.632 746.938h-33.136v-33.139h33.136v33.139zm49.698-265.074l-33.136 16.567v99.396h-99.396v-99.396l-33.136-16.567v-73.169a42.814 42.814 0 0 1 12.537-30.267 42.807 42.807 0 0 1 30.267-12.53h3.226c-18.028-19.869-17.037-50.455 2.234-69.112 19.271-18.659 49.874-18.659 69.144 0 19.27 18.657 20.262 49.243 2.228 69.112h3.232a42.8 42.8 0 0 1 30.265 12.53 42.808 42.808 0 0 1 12.537 30.267v73.169zm33.136-265.072H319.33v-33.136h33.136v33.136zm198.801 530.146L518.143 763.5v99.407h-99.409V763.5l-33.136-16.562v-73.175a42.79 42.79 0 0 1 12.537-30.254 42.759 42.759 0 0 1 30.265-12.544h3.235c-18.029-19.856-17.044-50.447 2.227-69.106 19.269-18.657 49.873-18.657 69.15 0 19.276 18.659 20.249 49.25 2.228 69.106h3.232a42.793 42.793 0 0 1 30.267 12.544 42.785 42.785 0 0 1 12.529 30.254v73.175zm66.272-430.745l-33.136 16.569v99.401h-99.402v-99.401l-33.131-16.569v-73.167a42.805 42.805 0 0 1 12.53-30.267 42.828 42.828 0 0 1 30.267-12.537h3.232c-18.027-19.863-17.042-50.447 2.227-69.106 19.276-18.658 49.881-18.658 69.15 0 19.271 18.659 20.256 49.243 2.234 69.106h3.22a42.852 42.852 0 0 1 30.279 12.537 42.86 42.86 0 0 1 12.529 30.267v73.167zm82.835 480.455h-33.137v-33.149h33.137v33.149zM832.908 548.13v99.396h-99.396V548.13l-33.138-16.562v-73.175a42.76 42.76 0 0 1 12.544-30.26 42.738 42.738 0 0 1 30.254-12.537h3.23c-18.034-19.863-17.034-50.447 2.234-69.112 19.271-18.659 49.874-18.659 69.145 0 19.27 18.665 20.257 49.249 2.223 69.112h3.245a42.74 42.74 0 0 1 30.252 12.537 42.759 42.759 0 0 1 12.542 30.26v73.175l-33.135 16.562z"/></svg>