<svg xmlns="http://www.w3.org/2000/svg" width="1000" height="1000" viewBox="0 0 1000 1000"><path fill="#FFF" d="M600.632 658.763h29.465c26.038 0 47.147 21.109 47.147 47.146v47.147c0 26.034-21.109 47.146-47.147 47.146h-29.465c-26.038 0-47.147-21.111-47.147-47.146v-47.147c-.001-26.037 21.109-47.146 47.147-47.146zm159.117 0h29.467c26.036 0 47.146 21.109 47.146 47.146v47.147c0 26.034-21.109 47.146-47.146 47.146h-29.467c-26.034 0-47.146-21.111-47.146-47.146v-47.147c.001-26.037 21.112-47.146 47.146-47.146zm159.12 0h29.467c26.036 0 47.146 21.109 47.146 47.146v47.147c0 26.034-21.109 47.146-47.146 47.146h-29.467c-26.036 0-47.146-21.111-47.146-47.146v-47.147c.001-26.037 21.11-47.146 47.146-47.146zM600.632 835.562h29.465c26.038 0 47.147 21.109 47.147 47.147v47.146c0 26.036-21.109 47.146-47.147 47.146h-29.465c-26.038 0-47.147-21.109-47.147-47.146v-47.146c-.001-26.038 21.109-47.147 47.147-47.147zm159.117 0h29.467c26.036 0 47.146 21.109 47.146 47.147v47.146c0 26.036-21.109 47.146-47.146 47.146h-29.467c-26.034 0-47.146-21.109-47.146-47.146v-47.146c.001-26.038 21.112-47.147 47.146-47.147zm159.12 0h29.467c26.036 0 47.146 21.109 47.146 47.147v47.146c0 26.036-21.109 47.146-47.146 47.146h-29.467c-26.036 0-47.146-21.109-47.146-47.146v-47.146c.001-26.038 21.11-47.147 47.146-47.147zM600.632 481.964h29.465c26.038 0 47.147 21.109 47.147 47.146v47.146c0 26.038-21.109 47.147-47.147 47.147h-29.465c-26.038 0-47.147-21.109-47.147-47.147V529.11c-.001-26.037 21.109-47.146 47.147-47.146zm159.117 0h29.467c26.036 0 47.146 21.109 47.146 47.146v47.146c0 26.038-21.109 47.147-47.146 47.147h-29.467c-26.034 0-47.146-21.109-47.146-47.147V529.11c.001-26.037 21.112-47.146 47.146-47.146zm159.12 0h29.467c26.036 0 47.146 21.109 47.146 47.146v47.146c0 26.038-21.109 47.147-47.146 47.147h-29.467c-26.036 0-47.146-21.109-47.146-47.147V529.11c.001-26.037 21.11-47.146 47.146-47.146zm-318.237-176.8h29.465c26.038 0 47.147 21.111 47.147 47.147v47.146c0 26.037-21.109 47.146-47.147 47.146h-29.465c-26.038 0-47.147-21.109-47.147-47.146v-47.146c-.001-26.037 21.109-47.147 47.147-47.147zm159.117 0h29.467c26.036 0 47.146 21.111 47.146 47.147v47.146c0 26.037-21.109 47.146-47.146 47.146h-29.467c-26.034 0-47.146-21.109-47.146-47.146v-47.146c.001-26.037 21.112-47.147 47.146-47.147zm159.12 0h29.467c26.036 0 47.146 21.111 47.146 47.147v47.146c0 26.037-21.109 47.146-47.146 47.146h-29.467c-26.036 0-47.146-21.109-47.146-47.146v-47.146c.001-26.037 21.11-47.147 47.146-47.147zM52.555 658.763H82.02c26.039 0 47.148 21.109 47.148 47.146v47.147c0 26.034-21.109 47.146-47.148 47.146H52.555c-26.037 0-47.147-21.111-47.147-47.146v-47.147c-.001-26.037 21.11-47.146 47.147-47.146zm159.118 0h29.467c26.036 0 47.146 21.109 47.146 47.146v47.147c0 26.034-21.109 47.146-47.146 47.146h-29.467c-26.037 0-47.146-21.111-47.146-47.146v-47.147c0-26.037 21.109-47.146 47.146-47.146zm159.119 0h29.467c26.036 0 47.146 21.109 47.146 47.146v47.147c0 26.034-21.109 47.146-47.146 47.146h-29.467c-26.037 0-47.146-21.111-47.146-47.146v-47.147c0-26.037 21.11-47.146 47.146-47.146zM52.555 835.562H82.02c26.039 0 47.148 21.109 47.148 47.147v47.146c0 26.036-21.109 47.146-47.148 47.146H52.555c-26.037 0-47.147-21.109-47.147-47.146v-47.146c-.001-26.038 21.11-47.147 47.147-47.147zm159.118 0h29.467c26.036 0 47.146 21.109 47.146 47.147v47.146c0 26.036-21.109 47.146-47.146 47.146h-29.467c-26.037 0-47.146-21.109-47.146-47.146v-47.146c0-26.038 21.109-47.147 47.146-47.147zm159.119 0h29.467c26.036 0 47.146 21.109 47.146 47.147v47.146c0 26.036-21.109 47.146-47.146 47.146h-29.467c-26.037 0-47.146-21.109-47.146-47.146v-47.146c0-26.038 21.11-47.147 47.146-47.147zM52.555 481.964H82.02c26.039 0 47.148 21.109 47.148 47.146v47.146c0 26.038-21.109 47.147-47.148 47.147H52.555c-26.037 0-47.147-21.109-47.147-47.147V529.11c-.001-26.037 21.11-47.146 47.147-47.146zm159.118 0h29.467c26.036 0 47.146 21.109 47.146 47.146v47.146c0 26.038-21.109 47.147-47.146 47.147h-29.467c-26.037 0-47.146-21.109-47.146-47.147V529.11c0-26.037 21.109-47.146 47.146-47.146zm159.119 0h29.467c26.036 0 47.146 21.109 47.146 47.146v47.146c0 26.038-21.109 47.147-47.146 47.147h-29.467c-26.037 0-47.146-21.109-47.146-47.147V529.11c0-26.037 21.11-47.146 47.146-47.146zm-318.237-176.8H82.02c26.039 0 47.148 21.111 47.148 47.147v47.146c0 26.037-21.109 47.146-47.148 47.146H52.555c-26.037 0-47.147-21.109-47.147-47.146v-47.146c-.001-26.037 21.11-47.147 47.147-47.147zm159.118 0h29.467c26.036 0 47.146 21.111 47.146 47.147v47.146c0 26.037-21.109 47.146-47.146 47.146h-29.467c-26.037 0-47.146-21.109-47.146-47.146v-47.146c0-26.037 21.109-47.147 47.146-47.147zm159.119 0h29.467c26.036 0 47.146 21.111 47.146 47.147v47.146c0 26.037-21.109 47.146-47.146 47.146h-29.467c-26.037 0-47.146-21.109-47.146-47.146v-47.146c0-26.037 21.11-47.147 47.146-47.147zM52.555 22.286h895.781c26.036 0 47.146 21.11 47.146 47.147v117.865c0 26.037-21.109 47.146-47.146 47.146H52.555c-26.037 0-47.147-21.109-47.147-47.146V69.433c-.001-26.037 21.11-47.147 47.147-47.147z"/></svg>