<svg xmlns="http://www.w3.org/2000/svg" width="1000" height="1000" viewBox="0 0 1000 1000"><path fill="#FFF" d="M949.581 570.177h-29.562c-26.122 0-47.301-21.179-47.301-47.299v-47.301c0-26.122 21.179-47.301 47.301-47.301h29.562c26.121 0 47.301 21.179 47.301 47.301v47.301c0 26.12-21.18 47.299-47.301 47.299zm0-212.851h-29.562c-26.122 0-47.301-21.18-47.301-47.3v-47.301c0-26.123 21.179-47.301 47.301-47.301h29.562c26.121 0 47.301 21.178 47.301 47.301v47.301c0 26.12-21.18 47.3-47.301 47.3zm0-212.853h-29.562c-26.122 0-47.301-21.18-47.301-47.301v-47.3c0-26.123 21.179-47.301 47.301-47.301h29.562c26.121 0 47.301 21.178 47.301 47.301v47.3c0 26.121-21.18 47.301-47.301 47.301zM80.433 357.326H50.872c-26.123 0-47.301-21.18-47.301-47.3v-47.301c0-26.123 21.178-47.301 47.301-47.301h29.561c26.123 0 47.301 21.178 47.301 47.301v47.301c-.001 26.12-21.179 47.3-47.301 47.3zm0-212.853H50.872c-26.123 0-47.301-21.18-47.301-47.301v-47.3c0-26.123 21.178-47.301 47.301-47.301h29.561c26.123 0 47.301 21.178 47.301 47.301v47.3c-.001 26.121-21.179 47.301-47.301 47.301zm0 425.704H50.872c-26.123 0-47.301-21.179-47.301-47.299v-47.301c0-26.122 21.178-47.301 47.301-47.301h29.561c26.123 0 47.301 21.179 47.301 47.301v47.301c-.001 26.12-21.179 47.299-47.301 47.299zm0 212.852H50.872c-26.123 0-47.301-21.18-47.301-47.301v-47.301c0-26.12 21.178-47.301 47.301-47.301h29.561c26.123 0 47.301 21.181 47.301 47.301v47.301c-.001 26.122-21.179 47.301-47.301 47.301zm869.148 0h-29.562c-26.122 0-47.301-21.18-47.301-47.301v-47.301c0-26.12 21.179-47.301 47.301-47.301h29.562c26.121 0 47.301 21.181 47.301 47.301v47.301c0 26.122-21.18 47.301-47.301 47.301zM807.68 995.882h-29.563c-26.122 0-47.3-21.18-47.3-47.301V901.28c0-26.12 21.178-47.3 47.3-47.3h29.563c26.12 0 47.301 21.18 47.301 47.3v47.301c-.001 26.121-21.181 47.301-47.301 47.301zm-195.116 0h-29.562c-26.121 0-47.301-21.18-47.301-47.301V901.28c0-26.12 21.18-47.3 47.301-47.3h29.562c26.122 0 47.301 21.18 47.301 47.3v47.301c0 26.121-21.178 47.301-47.301 47.301zm-195.113 0h-29.564c-26.121 0-47.301-21.18-47.301-47.301V901.28c0-26.12 21.18-47.3 47.301-47.3h29.564c26.121 0 47.301 21.18 47.301 47.3v47.301c0 26.121-21.18 47.301-47.301 47.301zm-195.117 0h-29.561c-26.122 0-47.3-21.18-47.3-47.301V901.28c0-26.12 21.178-47.3 47.3-47.3h29.561c26.123 0 47.301 21.18 47.301 47.3v47.301c0 26.121-21.178 47.301-47.301 47.301zm532.133-212.853H245.985c-26.121 0-47.3-21.18-47.3-47.301V617.477c0-26.12 21.18-47.3 47.3-47.3h508.482c26.122 0 47.3 21.18 47.3 47.3v118.252c0 26.121-21.178 47.3-47.3 47.3zm-165.553-47.3V49.872c0-26.123 21.179-47.301 47.301-47.301h118.252c26.122 0 47.3 21.178 47.3 47.301v685.856c0 26.121-21.178 47.301-47.3 47.301H636.215c-26.122 0-47.301-21.179-47.301-47.3zm-390.229 0V49.872c0-26.123 21.18-47.301 47.3-47.301h118.251c26.123 0 47.301 21.178 47.301 47.301v685.856c0 26.121-21.178 47.301-47.301 47.301H245.985c-26.121 0-47.3-21.179-47.3-47.3z"/></svg>